<svg xmlns="http://www.w3.org/2000/svg" viewBox="0 0 279.4 190.33"><defs><style>.cls-1{fill:#f7931e;}.cls-2{fill:red;}.cls-3,.cls-4{fill:#ce1141;}.cls-3{stroke:#000;}.cls-5{fill:#050606;}.cls-6{fill:#b42a25;}</style></defs><title>Fichier 2</title><g id="Calque_2" data-name="Calque 2"><g id="Calque_1-2" data-name="Calque 1"><path class="cls-1" d="M24.09,115.34l-.45-1.67,3-7c-.06-.27-.15-.66-.29-1.19L20.86,84.94,18,88.76l-3.37.9-10.41-6L1.07,71.83l6-10.42,36.74-9.84,10.42,6L57.41,69.4l-6,10.41-3.33.89-4.44-1.86,5.52,20.58c.15.57.28,1,.37,1.23l6.07,4.47.45,1.66L50,117.2,34.5,121.35Z"/><path d="M34.36,122.43,23.23,116l-.64-2.4,3-7c-.05-.23-.12-.5-.21-.84l-5-18.57-1.82,2.43-4.1,1.1L3.38,84.3,0,71.69,6.43,60.55,44,50.49,55.1,56.92l3.38,12.62L52.06,80.67,48,81.76l-2.87-1.21,5,18.61c.09.36.18.65.25.88l6.1,4.48.64,2.4-6.43,11.13ZM25,114.68l9.7,5.6,14.71-3.94,5.6-9.7-.24-.92-6-4.45-.11-.29c-.09-.28-.22-.7-.39-1.3l-6-22.56,6,2.53,2.6-.7,5.6-9.69-3-11-9.7-5.6L7.75,62.27,2.15,72,5.1,83l9.69,5.6,2.63-.7,3.87-5.19,6.05,22.57c.14.55.24,1,.3,1.24l.07.31-3,6.94Z"/><path class="cls-1" d="M9.29,69.63,46,59.78,49.2,71.6l-3.33.89a33.78,33.78,0,0,0-2.72-4.22,9.48,9.48,0,0,0-2.23-2.17,5.19,5.19,0,0,0-2.09-.79,8.4,8.4,0,0,0-2.9.38l-4.31,1.16,9.32,34.77A18.26,18.26,0,0,0,42,104.75a5.33,5.33,0,0,0,1.19,1.7,3.17,3.17,0,0,0,1.53.76,11.78,11.78,0,0,0,2.65.11l.44,1.66L32.3,113.14l-.44-1.66a16.88,16.88,0,0,0,1.66-1,4.52,4.52,0,0,0,1.1-1,3.23,3.23,0,0,0,.54-1.22,5.94,5.94,0,0,0,.07-1.8,21.11,21.11,0,0,0-.64-3.14L25.27,68.55,21,69.69a9.78,9.78,0,0,0-2.55,1,4.43,4.43,0,0,0-1.58,1.79A9.39,9.39,0,0,0,16,75.67a31.35,31.35,0,0,0-.17,4.87l-3.37.9Z"/><path d="M31.59,114.36l-.9-3.39.69-.38c.61-.32,1.14-.64,1.58-.93a3.45,3.45,0,0,0,.85-.78,2.16,2.16,0,0,0,.38-.84,5.33,5.33,0,0,0,0-1.49,18.74,18.74,0,0,0-.61-3L24.56,69.77l-3.31.89a8.78,8.78,0,0,0-2.29.9A3.35,3.35,0,0,0,17.75,73,8.61,8.61,0,0,0,17,75.8a30.59,30.59,0,0,0-.16,4.71l0,.79-5.09,1.37L8.06,68.92,46.74,58.56l3.68,13.75-5,1.35L45,73a32.89,32.89,0,0,0-2.63-4.09,8.44,8.44,0,0,0-2-1.94,4,4,0,0,0-1.67-.64,6.85,6.85,0,0,0-2.52.35l-3.35.89,9.06,33.81a18,18,0,0,0,1,3,4.34,4.34,0,0,0,1,1.39,2.33,2.33,0,0,0,1.07.52,11.14,11.14,0,0,0,2.41.09l.8,0,.91,3.4ZM26,67.32l9.58,35.74a20.81,20.81,0,0,1,.67,3.31,6.72,6.72,0,0,1-.08,2.11,4.32,4.32,0,0,1-.72,1.6,5.37,5.37,0,0,1-1.34,1.23c-.26.18-.55.36-.87.55l13.15-3.52a9.8,9.8,0,0,1-1.83-.15,4.25,4.25,0,0,1-2-1,6.26,6.26,0,0,1-1.42-2,19.53,19.53,0,0,1-1.14-3.3L30.39,66.14l5.28-1.42a9,9,0,0,1,3.28-.4,6,6,0,0,1,2.5.93,10.38,10.38,0,0,1,2.49,2.4,31.23,31.23,0,0,1,2.41,3.67L48,70.89,45.32,61,10.51,70.33l2.65,9.89,1.64-.44A31.29,31.29,0,0,1,15,75.55,10.72,10.72,0,0,1,16,72a5.41,5.41,0,0,1,2-2.18,10.58,10.58,0,0,1,2.81-1.12Z"/><path class="cls-1" d="M55.19,107l-.44-1.67,2.46-6c-.06-.31-.19-.9-.45-1.87L49.14,69.07c-.68-2.55-1-3.71-1.18-4.23l-.06-.18-5.7-4-.48-1.76L47.4,48.58l8.09-2.53.34-.1,2-.55,10.42,6,2,7.53a18.36,18.36,0,0,1,2.37-.81A20.94,20.94,0,0,1,78,57.4h.55a15.79,15.79,0,0,1,11.26,5.07,19.72,19.72,0,0,1,3.33,5,34.83,34.83,0,0,1,2.12,6l3.43,12.8c.24.91.42,1.49.54,1.86L104.39,92l.44,1.66-6,10.42-13.38,3.59-4-2.34-2.33,4L65.61,113Z"/><path d="M65.47,114.09l-11.13-6.42-.65-2.39,2.48-6c-.08-.33-.19-.83-.38-1.53L48.17,69.32c-.61-2.3-.94-3.46-1.12-4l-5.73-4-.67-2.5,6.06-11L55.55,45,58,44.33l11.13,6.43L71,57.62c.47-.17,1-.31,1.43-.44a21.32,21.32,0,0,1,6.2-.77,17.21,17.21,0,0,1,6.53,1.48,16.92,16.92,0,0,1,5.43,3.9A20.78,20.78,0,0,1,94.07,67a35.62,35.62,0,0,1,2.19,6.16L99.69,86c.18.67.32,1.16.43,1.51l5.15,4,.64,2.39L99.48,105l-14.18,3.8-3.54-2-2,3.54Zm-9.42-7.74,9.7,5.6,12.65-3.39L81,104l4.55,2.63,12.58-3.37,5.6-9.7-.25-.93-5.1-3.93-.1-.29c-.12-.37-.31-1-.55-1.91L94.33,73.7a33.79,33.79,0,0,0-2.06-5.81,18.78,18.78,0,0,0-3.16-4.73,14.69,14.69,0,0,0-4.79-3.44,15.06,15.06,0,0,0-5.77-1.31,19.49,19.49,0,0,0-5.62.7,17,17,0,0,0-2.25.76l-1.05.44-2.21-8.23-9.7-5.6L55.77,47l-7.69,2.4L42.79,59l.28,1,5.68,4,.17.52c.16.53.5,1.7,1.19,4.26l7.61,28.42c.27,1,.41,1.61.47,1.94l.06.29-2.45,6Z"/><path class="cls-1" d="M65.82,75.08H66a34.66,34.66,0,0,1,3.19-4.88,13.7,13.7,0,0,1,2.62-2.43,10,10,0,0,1,3.1-1.41,11.53,11.53,0,0,1,3.45-.45,7.65,7.65,0,0,1,2.92.65,7.31,7.31,0,0,1,2.39,1.73,11.3,11.3,0,0,1,1.88,2.84,27.18,27.18,0,0,1,1.57,4.51l3.43,12.8a21.84,21.84,0,0,0,1.33,4,3.29,3.29,0,0,0,1.36,1.42,7.25,7.25,0,0,0,3,.42l.45,1.67L83.24,99.49l-.45-1.66a14.28,14.28,0,0,0,1.72-1.22,3,3,0,0,0,.74-1.11,4.74,4.74,0,0,0,.16-1.85,20.13,20.13,0,0,0-.71-3.5l-2.38-8.9A41.55,41.55,0,0,0,80,74.46a6.36,6.36,0,0,0-2.76-3.1,5.68,5.68,0,0,0-4.07-.18,6.21,6.21,0,0,0-2.32,1.13,11.16,11.16,0,0,0-2.06,2.37,10.09,10.09,0,0,0-1.48,3.09,5.68,5.68,0,0,0,0,3l3.48,13c.42,1.54.75,2.63,1,3.26a5.24,5.24,0,0,0,.9,1.53,2.87,2.87,0,0,0,1.33.81,8.6,8.6,0,0,0,2.37.22l.45,1.66-13.45,3.61L63,103.14a10,10,0,0,0,1.93-1.35,2.82,2.82,0,0,0,.75-1.22,4.86,4.86,0,0,0,.08-1.81A25.23,25.23,0,0,0,65,95.29L57.35,66.86q-.87-3.26-1.26-4.53a12.69,12.69,0,0,0-.86-2.12,4,4,0,0,0-1-1.25A2.91,2.91,0,0,0,53,58.43a12.21,12.21,0,0,0-2.56,0l-.47-1.76L58,54.16l2-.54Z"/><path d="M62.7,106l-.9-3.37.66-.38a8.83,8.83,0,0,0,1.73-1.2,1.89,1.89,0,0,0,.49-.8,3.63,3.63,0,0,0,0-1.41A26.7,26.7,0,0,0,64,95.55L56.39,67.12c-.57-2.13-1-3.65-1.26-4.5a10.82,10.82,0,0,0-.78-1.93,3.15,3.15,0,0,0-.72-.93,1.89,1.89,0,0,0-.83-.34,10,10,0,0,0-2.3,0l-.84.07L48.72,56l9-2.82,3-.82,5.44,20.29a25.15,25.15,0,0,1,2.18-3.13A14.73,14.73,0,0,1,71.2,67a10.94,10.94,0,0,1,3.41-1.56,12.68,12.68,0,0,1,3.74-.48,8.43,8.43,0,0,1,3.3.74,8.32,8.32,0,0,1,2.71,1.95,12.37,12.37,0,0,1,2,3.1A28.32,28.32,0,0,1,88,75.38l3.43,12.81a19.82,19.82,0,0,0,1.25,3.73,2.27,2.27,0,0,0,.94,1,6.22,6.22,0,0,0,2.52.31h.76l.9,3.37-15.31,4.11-.89-3.35.62-.39a11.92,11.92,0,0,0,1.57-1.11,1.94,1.94,0,0,0,.48-.73,3.54,3.54,0,0,0,.1-1.42,19.87,19.87,0,0,0-.67-3.32l-2.39-8.89a39.46,39.46,0,0,0-2.24-6.61,5.45,5.45,0,0,0-2.31-2.65,4.78,4.78,0,0,0-3.36-.11,5.3,5.3,0,0,0-2,1,9.84,9.84,0,0,0-1.86,2.15A9,9,0,0,0,68.29,78a4.7,4.7,0,0,0,0,2.44l3.49,13a30.82,30.82,0,0,0,1,3.15,4.24,4.24,0,0,0,.71,1.23,2,2,0,0,0,.87.52,7.22,7.22,0,0,0,2.08.18h.77l.91,3.38ZM52.08,57.37a6.11,6.11,0,0,1,1.06.08,3.81,3.81,0,0,1,1.71.72,5,5,0,0,1,1.25,1.56A12.13,12.13,0,0,1,57,62c.27.88.7,2.42,1.28,4.58L65.94,95a24.46,24.46,0,0,1,.77,3.63,5.66,5.66,0,0,1-.11,2.2,3.89,3.89,0,0,1-1,1.63,8.62,8.62,0,0,1-1.4,1.07l11.32-3a8.32,8.32,0,0,1-1.76-.25A3.8,3.8,0,0,1,72,99.18a6,6,0,0,1-1.08-1.82,33.24,33.24,0,0,1-1-3.38L66.36,81a6.76,6.76,0,0,1,0-3.46A11,11,0,0,1,68,74.11a11.81,11.81,0,0,1,2.26-2.58,7.16,7.16,0,0,1,2.68-1.32,6.63,6.63,0,0,1,4.78.26A7.37,7.37,0,0,1,80.91,74a41.76,41.76,0,0,1,2.38,7l2.38,8.9a21,21,0,0,1,.73,3.69,5.32,5.32,0,0,1-.22,2.27,3.9,3.9,0,0,1-1,1.49,10.23,10.23,0,0,1-1.23.92l11.35-3a6.39,6.39,0,0,1-2.56-.51A4.28,4.28,0,0,1,91,92.88a21.93,21.93,0,0,1-1.42-4.18L86.11,75.9a25.16,25.16,0,0,0-1.51-4.34A10.38,10.38,0,0,0,82.9,69a6.42,6.42,0,0,0-2.07-1.5,6.64,6.64,0,0,0-2.54-.56,11.2,11.2,0,0,0-3.16.41,9.11,9.11,0,0,0-2.79,1.27,13,13,0,0,0-2.43,2.26,33.91,33.91,0,0,0-3.08,4.72l-.28.5-1.5,0L59.36,54.84l-1.07.29-7.14,2.23v0Z"/><path class="cls-1" d="M112.05,100.25a20.18,20.18,0,0,1-11.7-3.55c-4.82-3.33-8.27-8.79-10.26-16.22a30.13,30.13,0,0,1-.74-13.12A22.71,22.71,0,0,1,95.08,55.7a23.24,23.24,0,0,1,11.2-6.6,25.5,25.5,0,0,1,6.51-.91,19.71,19.71,0,0,1,3.19.25A18.73,18.73,0,0,1,124.45,52a22.87,22.87,0,0,1,5.65,6.57,40.66,40.66,0,0,1,3.75,9.19l-3,5.33,1.58,1,3,11.31a37,37,0,0,1-3.94,6,24.6,24.6,0,0,1-5.3,4.76,24.14,24.14,0,0,1-7.09,3.14A27.13,27.13,0,0,1,112.05,100.25Z"/><path d="M112.05,101.25a21.17,21.17,0,0,1-12.27-3.73c-5-3.47-8.6-9.11-10.66-16.78a31,31,0,0,1-.75-13.55,23.72,23.72,0,0,1,6-12.17,25.63,25.63,0,0,1,21.8-7.56,19.63,19.63,0,0,1,8.92,3.78A23.88,23.88,0,0,1,131,58.1a41.28,41.28,0,0,1,3.85,9.41l.12.4-2.74,4.86,1.1.69,3.18,12.08-.19.35A38.3,38.3,0,0,1,132.23,92a25.29,25.29,0,0,1-5.51,5,25,25,0,0,1-7.39,3.27A28.34,28.34,0,0,1,112.05,101.25Zm.74-52.06a23.89,23.89,0,0,0-6.25.88,22.16,22.16,0,0,0-10.73,6.31,21.75,21.75,0,0,0-5.47,11.16,29.19,29.19,0,0,0,.71,12.68c1.93,7.2,5.25,12.46,9.87,15.65,4.93,3.41,11.06,4.27,17.89,2.44a22.75,22.75,0,0,0,11.88-7.57,35.87,35.87,0,0,0,3.64-5.46l-2.77-10.54-2.05-1.28,3.26-5.79a38.52,38.52,0,0,0-3.53-8.56,21.89,21.89,0,0,0-5.4-6.28,17.72,17.72,0,0,0-8-3.4A18.87,18.87,0,0,0,112.79,49.19Z"/><path class="cls-1" d="M127.94,81.33a30,30,0,0,1-3,4.63,15.7,15.7,0,0,1-3.45,3.09,15.47,15.47,0,0,1-4.59,2q-7,1.88-11.69-1.36T98.3,78.28a21.6,21.6,0,0,1-.57-9.42,14.28,14.28,0,0,1,3.57-7.37,14.9,14.9,0,0,1,7.18-4.18,14.58,14.58,0,0,1,6.13-.47,10.23,10.23,0,0,1,4.65,1.93,14.46,14.46,0,0,1,3.52,4.16,32.93,32.93,0,0,1,2.91,7.24l-21.4,5.74.16.61a22.62,22.62,0,0,0,2.71,6.5,8.28,8.28,0,0,0,9.86,3.6,12.18,12.18,0,0,0,4.74-2.38,15.44,15.44,0,0,0,3.52-4.57Zm-9.39-12.26A27.14,27.14,0,0,0,116,63.32a7.77,7.77,0,0,0-3.09-3,5.66,5.66,0,0,0-4.07-.24,6.87,6.87,0,0,0-4.84,4.3q-1.33,3.36-.31,8.65Z"/><path d="M112.06,92.75a12.79,12.79,0,0,1-7.44-2.23c-3.32-2.29-5.77-6.32-7.28-12a22.68,22.68,0,0,1-.6-9.86,15.28,15.28,0,0,1,3.83-7.87,15.89,15.89,0,0,1,7.65-4.46,15.58,15.58,0,0,1,6.55-.5,11.25,11.25,0,0,1,5.1,2.13,15.4,15.4,0,0,1,3.77,4.44,33.82,33.82,0,0,1,3,7.47l.28,1-21.41,5.73A21.05,21.05,0,0,0,108,82.47a7.74,7.74,0,0,0,3.64,3.11,8,8,0,0,0,5.13.07,11.17,11.17,0,0,0,4.34-2.18,14.44,14.44,0,0,0,3.29-4.27l.51-.94L129.28,81l-.46.84a30.84,30.84,0,0,1-3.14,4.79A16.71,16.71,0,0,1,122,89.88,16.43,16.43,0,0,1,117.13,92,19.6,19.6,0,0,1,112.06,92.75Zm.73-35.06a15.79,15.79,0,0,0-4.05.59,13.88,13.88,0,0,0-6.71,3.9A13.27,13.27,0,0,0,98.71,69a20.72,20.72,0,0,0,.56,9c1.39,5.19,3.57,8.85,6.48,10.86s6.45,2.4,10.86,1.22a14.2,14.2,0,0,0,7.53-4.78,25.81,25.81,0,0,0,2.46-3.65l-1-.6A15.73,15.73,0,0,1,122.4,85a13.29,13.29,0,0,1-5.12,2.57,9.3,9.3,0,0,1-11-4,23.8,23.8,0,0,1-2.83-6.79l-.42-1.58,21.36-5.72a29,29,0,0,0-2.51-6,13.34,13.34,0,0,0-3.27-3.87,9.3,9.3,0,0,0-4.2-1.75A11,11,0,0,0,112.79,57.69Zm-9.86,16.6-.21-1.06c-.71-3.7-.58-6.8.38-9.21a7.84,7.84,0,0,1,5.5-4.9,6.7,6.7,0,0,1,4.77.31,8.8,8.8,0,0,1,3.5,3.36,28.09,28.09,0,0,1,2.63,6l.33,1Zm7.77-13.46a6.12,6.12,0,0,0-1.58.22A5.88,5.88,0,0,0,105,64.76a13.74,13.74,0,0,0-.44,7l12.74-3.41a24.13,24.13,0,0,0-2.07-4.53,6.82,6.82,0,0,0-2.69-2.62A4,4,0,0,0,110.7,60.83Z"/><path class="cls-2" d="M122.22,102.79a2.51,2.51,0,0,0,1.57-1.93,1.82,1.82,0,0,0-.52-1.47,48.17,48.17,0,0,0-11.43-9,2.93,2.93,0,0,0-2.57-.12,2.74,2.74,0,0,0-1.27,1,2,2,0,0,0,0,2.11c2.41,4,3.77,7.24,4.26,10.17a2.12,2.12,0,0,0,1.2,1.61,3,3,0,0,0,2.42,0,2.66,2.66,0,0,0,1.32-1.17c.29-.54.59-1.08.92-1.62h0c.73.21,1.49.41,2.31.58A3.1,3.1,0,0,0,122.22,102.79Z"/><path class="cls-2" d="M121.17,100.8c-1.42-.28-2.75-.74-4.2-1.07h0a35.87,35.87,0,0,0-2.1,3.46s0,0,0,0c-.61-3.78-2.51-7.6-4.55-11h0a46.32,46.32,0,0,1,10.86,8.6Z"/><path class="cls-3" d="M120.42,103.06c-.79-.16-1.53-.36-2.22-.55h0c-.31.52-.61,1-.89,1.57a2.67,2.67,0,0,1-1.36,1.19h0A3,3,0,0,1,113,105a2.11,2.11,0,0,1-.82-1.4c-.49-2.92-1.85-6.16-4.26-10.18a2,2,0,0,1-.27-1.57,2.65,2.65,0,0,1,1.57-1.7,3.06,3.06,0,0,1,2.68.13,48.14,48.14,0,0,1,11.38,9,2,2,0,0,1,.58,1.79,2.59,2.59,0,0,1-1.6,1.83A3.23,3.23,0,0,1,120.42,103.06ZM108.06,91.38a1.88,1.88,0,0,0,.06,1.94c2.42,4,3.78,7.28,4.27,10.22a2,2,0,0,0,.75,1.29,2.8,2.8,0,0,0,2.71.27h0a2.55,2.55,0,0,0,1.26-1.11c.29-.54.6-1.09.93-1.64l0-.07.09,0c.72.2,1.49.41,2.31.57a2.82,2.82,0,0,0,1.69-.17,2.32,2.32,0,0,0,1.5-2,1.86,1.86,0,0,0-.54-1.32,48.54,48.54,0,0,0-11.37-9,2.82,2.82,0,0,0-2.46-.11A2.59,2.59,0,0,0,108.06,91.38Z"/><path class="cls-4" d="M121.16,100.9c-.82-.17-1.61-.39-2.38-.6-.57-.16-1.16-.32-1.76-.46h0a36.65,36.65,0,0,0-2.06,3.4l-.15.3,0-.32c-.52-3.19-2-6.68-4.56-11l.17-.12a46,46,0,0,1,10.9,8.63l.2.21Zm-6.24,2h0a36.84,36.84,0,0,1,1.95-3.19l0-.07.09,0c.63.15,1.25.32,1.85.49s1.35.38,2,.53a46.07,46.07,0,0,0-10.27-8.15s0,0,0,0A31.79,31.79,0,0,1,114.92,102.87Z"/><path d="M104.82,133.1c6.84-2.88,16.52-7.59,21.49-15.34l.06-.1c3.24-5.66,2.61-11.7-1.77-17a2.48,2.48,0,0,0-1.21-.78c-.89-.25-1.78-.44-2.63-.63s-1.55-.33-2.27-.54a3,3,0,0,0-2,.13,2.61,2.61,0,0,0-1.34,1.19,15.56,15.56,0,0,1-.93,1.49c-.95,1.41-2.12,3.13-1.89,5h0c-1,4.76-6.19,7.86-10.42,9.64h0l-1.41.56-.12,0c-2.53,1.06-5.06,2-7.74,2.94l-3.28,1.18-.12,0a2.66,2.66,0,0,0-1.36,1.23,2,2,0,0,0,0,1.75l.08.16a2.19,2.19,0,0,0,.6.69,49.75,49.75,0,0,1,9.33,9.16,2.78,2.78,0,0,0,3.14.7C102.41,134.09,103.64,133.59,104.82,133.1Z"/><path class="cls-1" d="M117.54,100.82c1.61.46,3.29.71,4.9,1.17h0c3.47,4.19,4.71,9.37,1.61,14.79-4.73,7.37-14.23,12.06-23.94,15.82h0a51.81,51.81,0,0,0-9.73-9.54l-.08-.16c3.75-1.38,7.48-2.63,11.15-4.17,6.79-2.54,12.57-6.67,13.54-12.34h0c-.44-1.71,1.61-3.72,2.56-5.57Z"/><path class="cls-2" d="M11.4,123.59A2.51,2.51,0,0,1,9,120.51a52.76,52.76,0,0,1,5.78-14.3A2.49,2.49,0,0,1,16.91,105a2.55,2.55,0,0,1,.72.1,2.49,2.49,0,0,1,1.78,2.52c-.28,5.3,0,9.29.93,12.57a2.48,2.48,0,0,1-1.08,2.78,2.43,2.43,0,0,1-1.32.38,2.47,2.47,0,0,1-1.66-.62c-.5-.44-1-.87-1.54-1.29-.54.53-1.11,1.08-1.73,1.6A2.53,2.53,0,0,1,11.4,123.59Z"/><path class="cls-2" d="M16.91,107.46a42.44,42.44,0,0,0,1,13.37,40.85,40.85,0,0,0-3.39-2.69c-1.1,1-2,2-3.15,3A50.8,50.8,0,0,1,16.91,107.46Z"/><path class="cls-3" d="M11.4,123.69a2.6,2.6,0,0,1-2.53-3.2,53,53,0,0,1,5.79-14.34,2.6,2.6,0,0,1,2.25-1.29,2.72,2.72,0,0,1,.75.11,2.6,2.6,0,0,1,1.86,2.63,38.58,38.58,0,0,0,.93,12.53,2.61,2.61,0,0,1-2.51,3.3h0a2.59,2.59,0,0,1-1.72-.65c-.47-.42-1-.83-1.46-1.23-.51.5-1.06,1-1.68,1.54A2.59,2.59,0,0,1,11.4,123.69Zm5.51-18.62a2.41,2.41,0,0,0-2.07,1.19,52.93,52.93,0,0,0-5.77,14.28,2.4,2.4,0,0,0,2.33,2.94,2.46,2.46,0,0,0,1.54-.55c.63-.53,1.2-1.08,1.73-1.59l.06-.07.08.06c.52.42,1,.85,1.54,1.29a2.36,2.36,0,0,0,1.58.6h0a2.46,2.46,0,0,0,1.27-.36,2.41,2.41,0,0,0,1-2.68,39.16,39.16,0,0,1-.94-12.59,2.38,2.38,0,0,0-1.7-2.42A2.3,2.3,0,0,0,16.91,105.07Z"/><path class="cls-4" d="M11.23,121.38l.07-.31a50.24,50.24,0,0,1,5.52-13.66l.2.06c-.3,5.56,0,9.8,1,13.33l.1.35-.27-.24c-1.05-.92-2.16-1.81-3.31-2.63-.46.41-.89.83-1.31,1.24-.57.56-1.15,1.13-1.78,1.65Zm5.55-13.49a50.64,50.64,0,0,0-5.2,12.91c.53-.45,1-.93,1.52-1.43s.9-.88,1.38-1.31l.06,0,.07,0c1.09.77,2.14,1.6,3.13,2.46A41.47,41.47,0,0,1,16.78,107.89Z"/><path d="M40.07,147.38c-7.2,0-17.67-.68-25.45-6.54l-.1-.07c-5.35-4.45-7.52-11-6.13-18.37a2.57,2.57,0,0,1,.69-1.3c.66-.66,1.34-1.24,2-1.8s1.19-1,1.71-1.54a2.49,2.49,0,0,1,3.46-.08,17.36,17.36,0,0,0,1.47,1.13c1.46,1,3.24,2.32,3.88,4.34,3,4.49,8.89,5.45,13.33,5.45h0c.49,0,1,0,1.47,0h.12c2.66,0,5.26-.16,8-.33l3.36-.19H48a2.49,2.49,0,0,1,2.5,2.49v.2a2.56,2.56,0,0,1-.2,1,57.06,57.06,0,0,0-3.92,13.5,2.5,2.5,0,0,1-2.39,2.1C42.59,147.36,41.31,147.38,40.07,147.38Z"/><path class="cls-1" d="M19.27,124.17c3.39,5.44,10.24,7.21,17.24,6.88,3.86,0,7.63-.32,11.49-.52v.2a59.87,59.87,0,0,0-4.09,14.09c-10.08.33-20.39-.4-27.78-6-5.12-4.26-6.38-10.16-5.28-16,1.18-1.18,2.52-2.16,3.7-3.34C16.2,121,18.88,122.21,19.27,124.17Z"/><path d="M42.88,183.48l-.51-1.89,3-7c-.09-.41-.23-1.05-.48-2l-9-33.3c-.23-.84-.41-1.41-.53-1.79l-6.15-4.73-.51-1.89,6.93-11.87,14-3.7,10.58,3.81,9.15,12.94,1.93-16.17,7.21-8.23,13.24-3.5,12,6.85.51,1.89-3,6.93c.07.36.21,1,.49,2l9,33.3c.25.94.44,1.55.56,1.92l6.12,4.6.51,1.89L111,175.48l-16.33,4.33-10.32-5.89L82,176.6l-4.5,1.19-2.63-.94-5.66,9.7-14.3,3.78Z"/><path class="cls-1" d="M94.72,115.46a10.56,10.56,0,0,0-2.26,1.5,3.83,3.83,0,0,0-.93,1.38,5,5,0,0,0-.15,2.08,27.21,27.21,0,0,0,.85,4l9,33.3a30.51,30.51,0,0,0,1.2,3.72,5.32,5.32,0,0,0,1.1,1.73,3.45,3.45,0,0,0,1.53.84,11.94,11.94,0,0,0,2.85.23l.51,1.89-16.33,4.32-.51-1.88a8.58,8.58,0,0,0,2.76-2.06,3.65,3.65,0,0,0,.62-2.35,22.27,22.27,0,0,0-.9-4.55l-4-14.74q-1.59-5.81-3-11.81t-1.79-8.25l-.67.18-5.17,42.26L75,168.43,50,133.48l-.67.18q.84,2.29,2.68,8.4t3.61,12.62l3.82,14.09a31.42,31.42,0,0,0,1.2,3.73,5.61,5.61,0,0,0,1.1,1.73,3.34,3.34,0,0,0,1.53.83,11.37,11.37,0,0,0,2.86.24l.51,1.88L52.36,181l-.51-1.89a8.54,8.54,0,0,0,2.88-2.22,3.86,3.86,0,0,0,.5-2.43,27.39,27.39,0,0,0-.9-4.3l-9-33.3A27.84,27.84,0,0,0,44.06,133a5,5,0,0,0-1.16-1.72,3.47,3.47,0,0,0-1.49-.76,14.13,14.13,0,0,0-2.79-.23l-.51-1.89,14-3.7L76,158.54l5-41.46,13.24-3.51Z"/><path d="M124.32,167.9a13.84,13.84,0,0,1-2.74-.28,11.86,11.86,0,0,1-6-3.21,12.83,12.83,0,0,1-3.29-5.81,12.48,12.48,0,0,1,1.77-10.48,5.68,5.68,0,0,1-4.08-4l-1-3.68a5.66,5.66,0,0,1,1.64-5.65A49.5,49.5,0,0,1,115.2,131a32.53,32.53,0,0,1,4-2.43,23.66,23.66,0,0,1,4.68-1.79,17.82,17.82,0,0,1,4.66-.67,12.62,12.62,0,0,1,2.79.3,11.63,11.63,0,0,1,6.39,4,19.39,19.39,0,0,1,3.45,7.48l2.64,9.85c.24.88.43,1.59.58,2.13A5.65,5.65,0,0,1,149,154l.38,1.39a5.69,5.69,0,0,1-4,6.95l-7.76,2.07a5.59,5.59,0,0,1-1.46.2,5.53,5.53,0,0,1-1.8-.3,16.52,16.52,0,0,1-6.12,3.11A15.45,15.45,0,0,1,124.32,167.9Z"/><path class="cls-1" d="M135.21,154.8h-.45a17.94,17.94,0,0,1-3.67,4.81,11,11,0,0,1-4.32,2.28,8.66,8.66,0,0,1-4,.18,6.12,6.12,0,0,1-3.14-1.67,7.15,7.15,0,0,1-1.82-3.26q-1.11-4.14,2.38-7.48t11.57-5.91l-.5-1.83a15.2,15.2,0,0,0-1.81-4.49,4.66,4.66,0,0,0-2.45-2,6.12,6.12,0,0,0-3.46.08,5.48,5.48,0,0,0-3.24,2.11,7.39,7.39,0,0,0-1.09,4l-3.71,1-1-3.68a43.35,43.35,0,0,1,4-3.29,27.09,27.09,0,0,1,3.35-2,18.8,18.8,0,0,1,3.57-1.37,10.07,10.07,0,0,1,4.74-.31A5.85,5.85,0,0,1,133.4,134a14.37,14.37,0,0,1,2.33,5.32l2.64,9.84c.38,1.4.65,2.38.82,3a12.12,12.12,0,0,0,.6,1.56,3.51,3.51,0,0,0,.74,1.06,2.32,2.32,0,0,0,1,.52,8.46,8.46,0,0,0,2,.17l.37,1.39-7.75,2.08Zm-2.85-8.72q-5.73,1.59-8.19,3.83a4.9,4.9,0,0,0-1.67,5.21,4.59,4.59,0,0,0,1.33,2.37,3.44,3.44,0,0,0,2,.85,7.27,7.27,0,0,0,2.44-.28,7,7,0,0,0,3.25-1.87,7.21,7.21,0,0,0,1.81-3,5.75,5.75,0,0,0,.11-3.09Z"/><path d="M155.56,159.53a11.44,11.44,0,0,1-6.8-2.12c-2.71-1.94-4.6-5-5.78-9.45l-2.78-10.38h-.14a5.67,5.67,0,0,1-5.48-4.2l-.38-1.45a5.65,5.65,0,0,1,3.06-6.59,2.09,2.09,0,0,0,0-.24c0-.54-.12-1.59-.41-3.59a5.67,5.67,0,0,1,4.15-6.27l4-1.08a5.64,5.64,0,0,1,6.94,4l.41,1.51,3.66-1a5.65,5.65,0,0,1,1.47-.19,5.56,5.56,0,0,1,2.83.76,5.65,5.65,0,0,1,2.65,3.44l.76,2.86a5.66,5.66,0,0,1-4,6.94l-3.66,1,1.91,7.12c.25.95.47,1.7.66,2.27a5.68,5.68,0,0,1,3.2-1.85,5.76,5.76,0,0,1,1.09-.11,5.69,5.69,0,0,1,3.27,1l1.68,1.19a5.66,5.66,0,0,1,1.6,7.53,21.08,21.08,0,0,1-4.2,5.23,14.39,14.39,0,0,1-5.73,3.07A15.74,15.74,0,0,1,155.56,159.53Z"/><path class="cls-1" d="M139.67,130.47a6.3,6.3,0,0,0,2.08-1.41,4.08,4.08,0,0,0,1-1.83,8.33,8.33,0,0,0,.18-2.44q-.07-1.42-.45-4.08l4-1.07,1.87,7,9.14-2.45.76,2.85-9.14,2.45,3.38,12.6a33.25,33.25,0,0,0,1.4,4.31,6.23,6.23,0,0,0,1.53,2.32,3.91,3.91,0,0,0,1.77.93,4.51,4.51,0,0,0,2.14-.15,5.09,5.09,0,0,0,2-1,8.54,8.54,0,0,0,1.59-1.87l1.68,1.19a15.67,15.67,0,0,1-3,3.85,8.69,8.69,0,0,1-3.48,1.87c-2.44.65-4.44.42-6-.71s-2.77-3.22-3.59-6.3l-4.21-15.7-4.19,1.12Z"/><path d="M172.23,155.06a13.13,13.13,0,0,1-2.74-.28,11.71,11.71,0,0,1-6-3.21,12.69,12.69,0,0,1-3.28-5.8A12.46,12.46,0,0,1,162,135.28a5.6,5.6,0,0,1-1.44-.59,5.67,5.67,0,0,1-2.64-3.44l-1-3.68a5.64,5.64,0,0,1,1.64-5.64,45.5,45.5,0,0,1,4.54-3.75,32.37,32.37,0,0,1,4-2.44,24,24,0,0,1,4.67-1.79,18.39,18.39,0,0,1,4.67-.67,12.47,12.47,0,0,1,2.78.3,11.62,11.62,0,0,1,6.4,4,19.39,19.39,0,0,1,3.45,7.48l2.64,9.85c.24.89.43,1.6.58,2.13a5.66,5.66,0,0,1,4.58,4.13l.38,1.38a5.68,5.68,0,0,1-4,6.95l-7.76,2.08a5.57,5.57,0,0,1-1.46.19,5.75,5.75,0,0,1-1.8-.29,16.57,16.57,0,0,1-6.12,3.1A15.45,15.45,0,0,1,172.23,155.06Z"/><path class="cls-1" d="M183.12,142h-.45a17.87,17.87,0,0,1-3.67,4.8,10.72,10.72,0,0,1-4.32,2.28,8.4,8.4,0,0,1-4,.18,6.12,6.12,0,0,1-3.14-1.67,7.1,7.1,0,0,1-1.82-3.26q-1.11-4.14,2.38-7.48t11.57-5.9l-.5-1.84a15.6,15.6,0,0,0-1.81-4.49,4.68,4.68,0,0,0-2.45-2,6,6,0,0,0-3.46.08,5.39,5.39,0,0,0-3.24,2.11,7.33,7.33,0,0,0-1.09,4l-3.71,1-1-3.68a45.08,45.08,0,0,1,4-3.29,27.09,27.09,0,0,1,3.35-2,18.52,18.52,0,0,1,3.57-1.36,10.09,10.09,0,0,1,4.74-.32,5.91,5.91,0,0,1,3.28,2,14.44,14.44,0,0,1,2.33,5.32l2.64,9.85c.38,1.39.65,2.38.82,2.95a12.54,12.54,0,0,0,.6,1.55,3.39,3.39,0,0,0,.74,1.06,2.44,2.44,0,0,0,1,.53,9.05,9.05,0,0,0,2,.17l.37,1.38-7.75,2.08Zm-2.85-8.73q-5.73,1.59-8.2,3.83a4.91,4.91,0,0,0-1.66,5.21,4.55,4.55,0,0,0,1.33,2.37,3.44,3.44,0,0,0,2,.85,7,7,0,0,0,2.44-.28,6.93,6.93,0,0,0,3.25-1.87,7.21,7.21,0,0,0,1.81-3,5.75,5.75,0,0,0,.11-3.09Z"/><path d="M203.46,146.66a14,14,0,0,1-9-3.28c-3.28-2.69-5.6-6.75-7.12-12.4a23.51,23.51,0,0,1-.54-11,17.1,17.1,0,0,1,4.7-8.88,18.48,18.48,0,0,1,8.36-4.7c.35-.1.71-.19,1.06-.27-.07-.22-.12-.42-.17-.59a5.68,5.68,0,0,1-5-4.18l-.39-1.47a5.67,5.67,0,0,1,3.78-6.88l6.78-2.12.22-.06,1.67-.45a5.59,5.59,0,0,1,1.47-.19,5.63,5.63,0,0,1,5.47,4.2l8.78,32.77c.13.45.23.83.32,1.15a5.68,5.68,0,0,1,4.84,4.17l.39,1.47a5.67,5.67,0,0,1-3.77,6.88l-6.61,2.07-.23.07-1.69.45a5.76,5.76,0,0,1-3.55-.2c-.22.18-.45.36-.69.53a15,15,0,0,1-4.89,2.3A16.11,16.11,0,0,1,203.46,146.66Zm.83-27.22a4.27,4.27,0,0,0-.49.11c-.65.17-.7.31-.82.67-.22.67-.46,2.3.43,5.6,1,3.62,2,5,2.38,5.39a5.64,5.64,0,0,0,.64-.22h0a.92.92,0,0,0,.15-.14,2.71,2.71,0,0,0,.41-.58c.11-.19.17-.33.21-.4v-.08a6.37,6.37,0,0,0-.22-1.07l-1.7-6.34a19.34,19.34,0,0,0-.87-2.69A2,2,0,0,0,204.29,119.44Z"/><path class="cls-1" d="M207,106.93c-.49-1.81-.84-3.07-1.06-3.78a9.39,9.39,0,0,0-.72-1.76,3.25,3.25,0,0,0-.82-1,2.41,2.41,0,0,0-1.06-.44,9.39,9.39,0,0,0-2.13,0l-.39-1.47,6.77-2.12,1.67-.44,8.78,32.77c.39,1.47.7,2.51.93,3.13a4.18,4.18,0,0,0,.77,1.41,2.2,2.2,0,0,0,1.14.68,8,8,0,0,0,2.31.1l.4,1.47-6.6,2.07-1.7.46-.91-4.74h-.45a23.36,23.36,0,0,1-2.34,3.68,12.17,12.17,0,0,1-2.39,2.26,9.18,9.18,0,0,1-3,1.42,8.57,8.57,0,0,1-8.11-1.6q-3.47-2.85-5.24-9.5a17.83,17.83,0,0,1-.47-8.32,11.49,11.49,0,0,1,3.13-6,12.89,12.89,0,0,1,5.85-3.27,18.26,18.26,0,0,1,3.47-.61,16.44,16.44,0,0,1,3.4.13Zm3.74,14a25.34,25.34,0,0,0-1.14-3.48,7.33,7.33,0,0,0-1.27-2.06,4.75,4.75,0,0,0-1.66-1.19,5.48,5.48,0,0,0-2-.44,8.22,8.22,0,0,0-2.35.33,6.39,6.39,0,0,0-4.74,4.38q-1.12,3.4.34,8.84t3.77,7.85a5.23,5.23,0,0,0,5.48,1.56,8.54,8.54,0,0,0,2-.77,5.93,5.93,0,0,0,1.43-1.11,8.44,8.44,0,0,0,1.27-1.72,7.73,7.73,0,0,0,.8-1.82,5.85,5.85,0,0,0,.16-1.71,10.63,10.63,0,0,0-.41-2.32Z"/><path d="M236.58,137.61a15.88,15.88,0,0,1-8.87-2.57c-3.87-2.54-6.64-6.81-8.22-12.71a23.64,23.64,0,0,1-.56-11,16.91,16.91,0,0,1,4.78-8.91,19.05,19.05,0,0,1,8.51-4.7A22.37,22.37,0,0,1,238,97a16,16,0,0,1,9,2.62c3.88,2.58,6.62,6.8,8.16,12.55a24.36,24.36,0,0,1,.66,10.86,16.64,16.64,0,0,1-4.73,9,19.85,19.85,0,0,1-8.83,4.82A21.65,21.65,0,0,1,236.58,137.61Zm-1.27-26.5a1.19,1.19,0,0,0-.16.39c-.22.72-.44,2.44.48,5.87,1,3.77,2.15,5.3,2.74,5.87a1.66,1.66,0,0,0,.44.34,1.43,1.43,0,0,0,.28,0l.19-.06a1.88,1.88,0,0,0,.23-.6,6.74,6.74,0,0,0,.11-2.16,19.4,19.4,0,0,0-.61-3.39,16.78,16.78,0,0,0-2-5,4.29,4.29,0,0,0-1.17-1.32l-.09,0-.1,0A1.4,1.4,0,0,0,235.31,111.11Z"/><path class="cls-1" d="M240.73,131.35q-5.89,1.59-9.92-1.06c-2.68-1.75-4.63-4.9-5.84-9.42a17.91,17.91,0,0,1-.49-8.33,11.31,11.31,0,0,1,3.17-6,13.52,13.52,0,0,1,6-3.29q6.06-1.64,10.11,1.06t5.83,9.28a18.64,18.64,0,0,1,.56,8.34,11,11,0,0,1-3.12,6A14,14,0,0,1,240.73,131.35Zm-10.57-12.51q1.56,5.84,4.25,8.46a6,6,0,0,0,6.14,1.7,5.64,5.64,0,0,0,3-1.78,7,7,0,0,0,1.5-3.06,12.5,12.5,0,0,0,.24-3.93,24.92,24.92,0,0,0-.78-4.38,22.69,22.69,0,0,0-2.77-6.66,8.74,8.74,0,0,0-3.59-3.36,5.75,5.75,0,0,0-4-.32,6,6,0,0,0-4.46,4.38Q228.69,113.36,230.16,118.84Z"/><path d="M259.08,131.62a5.67,5.67,0,0,1-5.47-4.2l-.37-1.39a5.68,5.68,0,0,1,1.71-5.71c0-.2-.11-.44-.19-.71l-3.3-12.33c-.11-.41-.22-.79-.31-1.14a5.67,5.67,0,0,1-4.81-4.16l-.4-1.47a5.68,5.68,0,0,1,3.78-6.88l6.55-2.06.23-.07,1.72-.46a5.72,5.72,0,0,1,3.46.17l.61-.47a15.83,15.83,0,0,1,5.21-2.43,32.27,32.27,0,0,1,3.73-.77,6.47,6.47,0,0,1,.76-.05,5.67,5.67,0,0,1,5.47,4.21l1.75,6.5a5.68,5.68,0,0,1-4,7L272,106a5.59,5.59,0,0,1-4-.42l2.6,9.71c.06.21.11.41.16.58a5.65,5.65,0,0,1,4.87,4.17l.38,1.38a5.74,5.74,0,0,1-.57,4.31,5.67,5.67,0,0,1-3.44,2.64l-11.41,3.06A5.7,5.7,0,0,1,259.08,131.62Z"/><path class="cls-1" d="M260.71,101.55l.42,0a22.19,22.19,0,0,1,2.08-3.76,10.83,10.83,0,0,1,2.42-2.45A10.18,10.18,0,0,1,269,93.79a26,26,0,0,1,3-.63l1.74,6.51-3.2.86a6.78,6.78,0,0,0-2-1.84,3.12,3.12,0,0,0-2.28-.13,4,4,0,0,0-1.86,1.14,8,8,0,0,0-1.48,2.24,7.4,7.4,0,0,0-.71,2.47,7.24,7.24,0,0,0,.27,2.44l2.66,9.91a14.15,14.15,0,0,0,1.26,3.47,2.59,2.59,0,0,0,1.41,1.15,6.73,6.73,0,0,0,2.36.13l.37,1.38L259.09,126l-.38-1.39a10.55,10.55,0,0,0,1.39-1,2.69,2.69,0,0,0,.61-.93,3.28,3.28,0,0,0,.14-1.52,18.62,18.62,0,0,0-.61-3l-3.31-12.34c-.32-1.21-.6-2.17-.83-2.9a4.66,4.66,0,0,0-.87-1.66,2.31,2.31,0,0,0-1.3-.72,8.52,8.52,0,0,0-2.12,0L251.42,99,258,97l1.72-.46Z"/><path class="cls-5" d="M154.44,96.38A9.48,9.48,0,0,1,149.29,95a9.05,9.05,0,0,1-4.35-8.09,14.37,14.37,0,0,1,1.93-7.11v0a13.51,13.51,0,0,0-.2-3.07l-.12-1a21.1,21.1,0,0,1,.59-7.31,41.38,41.38,0,0,1-3.41-5.81c-2.65-5.37-3-10.81-3.29-15.61a55,55,0,0,1,1.3-15.75,10.74,10.74,0,0,1-1.38-1.31c-1.44-1.59-2.76-3.2-4-4.77l-.57-.69a7.51,7.51,0,0,1-1.43-3,.38.38,0,0,1,0-.1,8.08,8.08,0,0,1,1.43-7.08,11,11,0,0,1,8.66-4.1,9.92,9.92,0,0,1,1.23.07l.27-.07c.5-.13,1.09-.36,1.73-.59a23.92,23.92,0,0,1,3.48-1.1A7.3,7.3,0,0,1,156,6.74a12.35,12.35,0,0,1,1.94.18c1.16.19,2.29.44,3.37.72a6.83,6.83,0,0,1,.62-1.89A10,10,0,0,1,171,0a12,12,0,0,1,2.28.23,37.28,37.28,0,0,1,8.77,2.58c6,2.84,6.2,7.63,5.78,10.23a6.31,6.31,0,0,1-5.09,5.51,21.86,21.86,0,0,1-1.4,2.11,16.65,16.65,0,0,1,2.36,2.86,6.34,6.34,0,0,1,1.27,5,5.75,5.75,0,0,1-.43,1.37,6.9,6.9,0,0,0,.82,2.08,15.57,15.57,0,0,1,1.1,2.24c.08.19.18.44.25.58a19.06,19.06,0,0,1,3.73,5.38c1,2.33,3.16,4.52,5.41,6.85.67.69,1.33,1.38,2,2.08a5.74,5.74,0,0,1,1.19,2,5.88,5.88,0,0,1,.7,3.75,6,6,0,0,1-3.4,4.49,6.44,6.44,0,0,1-2.86.65,7.09,7.09,0,0,1-4.36-1.54,6.62,6.62,0,0,1-1.1-1.07,6.81,6.81,0,0,1-2.86.64h-.07a5.69,5.69,0,0,1-3.67-1.35l-.05,0a7.07,7.07,0,0,1-2.46-2.92,11.69,11.69,0,0,0-1.37-1.87c-.48-.59-1-1.26-1.56-2-.69-1-1.49-2-2.34-3.06-.57-.7-1.15-1.43-1.72-2.19a17.23,17.23,0,0,1-1.85,8.14,21,21,0,0,0-1.45,4.17,43.1,43.1,0,0,1-1.3,4.16,7.51,7.51,0,0,1,.15,2.67,67.28,67.28,0,0,1,4,5.94c.64,1.06,1.15,2.11,1.6,3a11,11,0,0,0,2.42,3.76,6.07,6.07,0,0,1,2.14,4.67v0A6.71,6.71,0,0,1,177,87.1a6.93,6.93,0,0,1-5.5,3c-.92.07-1.92.12-3.05.15s-2.14.13-3.31.24c-.66.06-1.34.13-2,.18a6.59,6.59,0,0,1-4.74,5.11A14.69,14.69,0,0,1,154.44,96.38Z"/><path class="cls-1" d="M193.72,53.39c0,.29.81.53.17.84a1.26,1.26,0,0,1-1.27-.25,2,2,0,0,1-.56-.8,5,5,0,0,0-4.32-2.32,1.62,1.62,0,0,0-1.42.67,1.46,1.46,0,0,1-1.22.81c-.34-.3-.83-.56-1-.92-.8-1.8-2.34-3.22-3.47-4.85-3-4.23-7.11-8-8.11-13.14l-5.31,3.34c-.29.18-.61.57-1,.33-1.13-.75-1,0-1.25.58a1.8,1.8,0,0,0,.26,1.69,4.63,4.63,0,0,1,1,2.55c-.1,2.74.2,5.47-1.22,8.12-1.57,2.93-1.92,6.2-3.15,9.23a3.3,3.3,0,0,0-.22,2.84,1.61,1.61,0,0,1,0,1.45,2.22,2.22,0,0,0,.49,2.55,62.38,62.38,0,0,1,4.4,6.46c1.66,2.78,2.48,5.94,5.23,8.25a.64.64,0,0,1,.12.5,4,4,0,0,0,.34,1.74c.31.92-.2,1.33-1.23,1.41s-1.85.11-2.77.14c-2.91.08-5.78.6-8.7.52a5.49,5.49,0,0,1-2.75-.69l2.54-.81a18.71,18.71,0,0,0,5.18-2.33c1.35-.92,1.59-2.34.44-3.42-1.78-1.66-3.65-3.26-5.56-4.94a32.84,32.84,0,0,0-2.89,6.49c-.9,3.13-2.46,6.39.81,9.31a.37.37,0,0,1,.11.19c.15.58.15,1.19-.64,1.41-1.52.43-3.26.61-4.5-.17a3.47,3.47,0,0,1-1.7-3.09,8.65,8.65,0,0,1,1.27-4.63,4.74,4.74,0,0,0,.63-2,22.06,22.06,0,0,0-.32-5.44c-.3-2.4.36-4.73.87-7.06a1.68,1.68,0,0,0-.34-1.57,35.1,35.1,0,0,1-3.9-6.31c-2.13-4.32-2.43-8.88-2.72-13.46a49.83,49.83,0,0,1,2-17.26c.08-.29.42-.75,0-1-1.06-.49-.41-1-.15-1.56.18-.38.57-.71.44-1.34l-.66.66c-1.35,1.27-1.88,1.31-3.11-.05-1.55-1.7-3-3.48-4.41-5.24a2.56,2.56,0,0,1-.39-1c-.61-2.21,2.4-4.34,5.35-4a5.33,5.33,0,0,0,2.21-.23c2.19-.57,4.14-1.74,6.52-1.83a.59.59,0,0,0,.56-.37c.4-1.22,1.46-1.17,2.62-1a43.77,43.77,0,0,1,7.84,2.22c1.14.41,1.73.1,2.13-.77.62-1.37,1.25-2.74,1.94-4.08.21-.41,0-.49-.35-.58s-.72-.19-1.08-.27c-.53-.11-.75-.24-.48-.79a4.41,4.41,0,0,1,5.17-2.45,32.18,32.18,0,0,1,7.47,2.14c2.15,1,2.92,2.21,2.6,4.23-.1.66-.36,1.06-1.25.68s-1.16-.07-1.64.53c-1.63,2-2.2,4.68-5.2,6-1,.46-.94,1.57,0,2.22a12.05,12.05,0,0,1,1.7,1.55A23.23,23.23,0,0,1,179,26.63c.21.35.72.82.25,1.11-.74.47-.59,1.05-.52,1.61A13.75,13.75,0,0,0,180.56,35c.74,1.2.94,2.6,2,3.69a13.37,13.37,0,0,1,2.74,3.86c1.81,4,5.32,7.13,8.4,10.46C193.71,53.12,193.7,53.26,193.72,53.39ZM149.3,22c.73-.1.67-1,1.14-1.52-1.05-.21-1.91.28-3,.15C148,21.38,148.52,22.06,149.3,22Z"/><path d="M222.66,92.7a12.62,12.62,0,0,1-1.83-.14c-.59-.07-1.18-.17-1.77-.27s-1.4-.23-2-.27c-2.6-.17-5.32-.25-8.3-.25-2.3,0-4.77,0-7.55.15-.52,0-1,0-1.56,0a14.79,14.79,0,0,1-6.16-1.16h0a3.78,3.78,0,0,0-1,.17A29.7,29.7,0,0,1,185,92h-.69q-1.24,0-2.49,0h-4.21c-.39,0-1,0-1.6-.07h0a6.07,6.07,0,0,1-5.85-4,5.94,5.94,0,0,1,2.32-7,13.75,13.75,0,0,1,.63-2.29c.06-.17.12-.33.17-.5.23-.89.5-1.71.76-2.5a15.13,15.13,0,0,0,.83-3.26c.33-5.14,1-11.19,3.54-17.08a7.51,7.51,0,0,0,.24-1,12.93,12.93,0,0,1,1.75-4.91,5.76,5.76,0,0,1,2.19-2,7.21,7.21,0,0,1,5-2.1h.38a11,11,0,0,1,6.37,2.14,5.67,5.67,0,0,1,2.24.72c6.54,3.72,13,7.67,18.49,11.08l.85.52a61.64,61.64,0,0,1,9.26,6.54,8.56,8.56,0,0,1,2.64,9.38,2.52,2.52,0,0,0-.06,1.83c.52,1.33,1.12,2.76,1.84,4.37,2.1,4.65-.17,7.64-1.25,8.72a7.67,7.67,0,0,1-5.61,2.21Z"/><path class="cls-6" d="M193.7,53c0,.14,0,.28,0,.41,0,.29.81.53.17.84a1.26,1.26,0,0,1-1.27-.25,2,2,0,0,1-.56-.8,5,5,0,0,0-4.32-2.32,1.62,1.62,0,0,0-1.42.67,1.46,1.46,0,0,1-1.22.81c-1,1.61-.84,3.47-1.56,5.16-2.12,4.9-2.76,10-3.09,15.19-.15,2.37-1.17,4.57-1.77,6.85-.36,1.34-1.2,2.64-.41,4.07.2.38-.21.58-.5.76-.55.33-1.14.6-1.68.93-.28.17-.79.26-.65.67s.57.2.88.25a10.53,10.53,0,0,0,1.26.06c2.27,0,4.55,0,6.82,0a24,24,0,0,0,6.71-.82,6.88,6.88,0,0,1,4.75.15,11.55,11.55,0,0,0,5.18.63,163.5,163.5,0,0,1,16.42.1c1.37.09,2.73.41,4.1.58a3.09,3.09,0,0,0,2.7-.46c.72-.72.46-1.56.09-2.39-.69-1.53-1.35-3.08-2-4.64a8.19,8.19,0,0,1,0-5.69,3,3,0,0,0-1.07-3.36A62.64,62.64,0,0,0,212,64C206,60.22,199.92,56.51,193.7,53Z"/></g></g></svg>